<svg width="35" height="35" viewBox="0 0 35 35" fill="none" xmlns="http://www.w3.org/2000/svg">
<path d="M17.4998 11.6667H5.83317C5.05962 11.6667 4.31776 11.974 3.77078 12.521C3.22379 13.068 2.9165 13.8098 2.9165 14.5834V20.4167C2.9165 21.1903 3.22379 21.9321 3.77078 22.4791C4.31776 23.0261 5.05962 23.3334 5.83317 23.3334H7.2915V29.1667C7.2915 29.5535 7.44515 29.9244 7.71864 30.1979C7.99213 30.4714 8.36306 30.625 8.74984 30.625H11.6665C12.0533 30.625 12.4242 30.4714 12.6977 30.1979C12.9712 29.9244 13.1248 29.5535 13.1248 29.1667V23.3334H17.4998L24.7915 29.1667V5.83337L17.4998 11.6667ZM31.354 17.5C31.354 19.9938 29.954 22.2542 27.7082 23.3334V11.6667C29.9394 12.7605 31.354 15.0209 31.354 17.5Z" fill="white"/>
</svg>
