<svg width="48" height="42" viewBox="0 0 48 42" fill="none" xmlns="http://www.w3.org/2000/svg">
<path d="M41.7778 5.25H36.0933L33.3333 1.16813C33.0894 0.80823 32.7589 0.513261 32.3712 0.309465C31.9835 0.105668 31.5506 -0.000638409 31.1111 2.88431e-06H16.8889C16.4494 -0.000638409 16.0165 0.105668 15.6288 0.309465C15.2411 0.513261 14.9106 0.80823 14.6667 1.16813L11.9044 5.25H6.22222C4.57199 5.25 2.98934 5.89531 1.82245 7.04397C0.655554 8.19263 0 9.75055 0 11.375V35.875C0 37.4995 0.655554 39.0574 1.82245 40.206C2.98934 41.3547 4.57199 42 6.22222 42H41.7778C42.5949 42 43.404 41.8416 44.1589 41.5338C44.9138 41.226 45.5998 40.7748 46.1776 40.206C46.7553 39.6373 47.2137 38.9621 47.5264 38.2189C47.8391 37.4758 48 36.6793 48 35.875V11.375C48 10.5707 47.8391 9.77419 47.5264 9.03107C47.2137 8.28795 46.7553 7.61273 46.1776 7.04397C45.5998 6.47521 44.9138 6.02405 44.1589 5.71624C43.404 5.40843 42.5949 5.25 41.7778 5.25ZM42.6667 35.875C42.6667 36.1071 42.573 36.3296 42.4063 36.4937C42.2396 36.6578 42.0135 36.75 41.7778 36.75H6.22222C5.98647 36.75 5.76038 36.6578 5.59368 36.4937C5.42698 36.3296 5.33333 36.1071 5.33333 35.875V11.375C5.33333 11.1429 5.42698 10.9204 5.59368 10.7563C5.76038 10.5922 5.98647 10.5 6.22222 10.5H13.3333C13.7728 10.5006 14.2057 10.3943 14.5934 10.1905C14.9811 9.98674 15.3116 9.69178 15.5556 9.33188L18.3156 5.25H29.6822L32.4444 9.33188C32.6884 9.69178 33.0189 9.98674 33.4066 10.1905C33.7943 10.3943 34.2272 10.5006 34.6667 10.5H41.7778C42.0135 10.5 42.2396 10.5922 42.4063 10.7563C42.573 10.9204 42.6667 11.1429 42.6667 11.375V35.875ZM24 12.25C21.8903 12.25 19.828 12.8658 18.0739 14.0196C16.3198 15.1733 14.9526 16.8132 14.1453 18.7318C13.338 20.6504 13.1267 22.7617 13.5383 24.7985C13.9499 26.8353 14.9658 28.7062 16.4575 30.1746C17.9493 31.6431 19.8499 32.6431 21.919 33.0482C23.9882 33.4534 26.1329 33.2455 28.082 32.4507C30.031 31.656 31.6969 30.3102 32.869 28.5835C34.0411 26.8568 34.6667 24.8267 34.6667 22.75C34.6637 19.9661 33.539 17.2971 31.5392 15.3286C29.5395 13.3601 26.8281 12.2529 24 12.25ZM24 28C22.9452 28 21.914 27.6921 21.037 27.1152C20.1599 26.5383 19.4763 25.7184 19.0726 24.7591C18.669 23.7998 18.5634 22.7442 18.7691 21.7258C18.9749 20.7074 19.4829 19.7719 20.2288 19.0377C20.9746 18.3035 21.925 17.8035 22.9595 17.6009C23.9941 17.3983 25.0664 17.5023 26.041 17.8996C27.0155 18.297 27.8485 18.9699 28.4345 19.8333C29.0205 20.6966 29.3333 21.7117 29.3333 22.75C29.3333 24.1424 28.7714 25.4777 27.7712 26.4623C26.771 27.4469 25.4145 28 24 28Z" fill="white"/>
<path d="M41.7778 5.25H36.0933L33.3333 1.16813C33.0894 0.80823 32.7589 0.513261 32.3712 0.309465C31.9835 0.105668 31.5506 -0.000638409 31.1111 2.88431e-06H16.8889C16.4494 -0.000638409 16.0165 0.105668 15.6288 0.309465C15.2411 0.513261 14.9106 0.80823 14.6667 1.16813L11.9044 5.25H6.22222C4.57199 5.25 2.98934 5.89531 1.82245 7.04397C0.655554 8.19263 0 9.75055 0 11.375V35.875C0 37.4995 0.655554 39.0574 1.82245 40.206C2.98934 41.3547 4.57199 42 6.22222 42H41.7778C42.5949 42 43.404 41.8416 44.1589 41.5338C44.9138 41.226 45.5998 40.7748 46.1776 40.206C46.7553 39.6373 47.2137 38.9621 47.5264 38.2189C47.8391 37.4758 48 36.6793 48 35.875V11.375C48 10.5707 47.8391 9.77419 47.5264 9.03107C47.2137 8.28795 46.7553 7.61273 46.1776 7.04397C45.5998 6.47521 44.9138 6.02405 44.1589 5.71624C43.404 5.40843 42.5949 5.25 41.7778 5.25ZM42.6667 35.875C42.6667 36.1071 42.573 36.3296 42.4063 36.4937C42.2396 36.6578 42.0135 36.75 41.7778 36.75H6.22222C5.98647 36.75 5.76038 36.6578 5.59368 36.4937C5.42698 36.3296 5.33333 36.1071 5.33333 35.875V11.375C5.33333 11.1429 5.42698 10.9204 5.59368 10.7563C5.76038 10.5922 5.98647 10.5 6.22222 10.5H13.3333C13.7728 10.5006 14.2057 10.3943 14.5934 10.1905C14.9811 9.98674 15.3116 9.69178 15.5556 9.33188L18.3156 5.25H29.6822L32.4444 9.33188C32.6884 9.69178 33.0189 9.98674 33.4066 10.1905C33.7943 10.3943 34.2272 10.5006 34.6667 10.5H41.7778C42.0135 10.5 42.2396 10.5922 42.4063 10.7563C42.573 10.9204 42.6667 11.1429 42.6667 11.375V35.875ZM24 12.25C21.8903 12.25 19.828 12.8658 18.0739 14.0196C16.3198 15.1733 14.9526 16.8132 14.1453 18.7318C13.338 20.6504 13.1267 22.7617 13.5383 24.7985C13.9499 26.8353 14.9658 28.7062 16.4575 30.1746C17.9493 31.6431 19.8499 32.6431 21.919 33.0482C23.9882 33.4534 26.1329 33.2455 28.082 32.4507C30.031 31.656 31.6969 30.3102 32.869 28.5835C34.0411 26.8568 34.6667 24.8267 34.6667 22.75C34.6637 19.9661 33.539 17.2971 31.5392 15.3286C29.5395 13.3601 26.8281 12.2529 24 12.25ZM24 28C22.9452 28 21.914 27.6921 21.037 27.1152C20.1599 26.5383 19.4763 25.7184 19.0726 24.7591C18.669 23.7998 18.5634 22.7442 18.7691 21.7258C18.9749 20.7074 19.4829 19.7719 20.2288 19.0377C20.9746 18.3035 21.925 17.8035 22.9595 17.6009C23.9941 17.3983 25.0664 17.5023 26.041 17.8996C27.0155 18.297 27.8485 18.9699 28.4345 19.8333C29.0205 20.6966 29.3333 21.7117 29.3333 22.75C29.3333 24.1424 28.7714 25.4777 27.7712 26.4623C26.771 27.4469 25.4145 28 24 28Z" stroke="black"/>
</svg>
