<svg width="47" height="86" viewBox="0 0 47 86" fill="none" xmlns="http://www.w3.org/2000/svg">
<path d="M1.98 37.5312L35.4484 2.08489C36.0725 1.4239 36.8134 0.899575 37.6288 0.541848C38.4443 0.184122 39.3182 0 40.2009 0C41.9834 0 43.6929 0.749959 44.9534 2.08489C45.5775 2.74589 46.0726 3.5306 46.4103 4.39423C46.7481 5.25785 46.9219 6.18349 46.9219 7.11827C46.9219 9.00615 46.2138 10.8167 44.9534 12.1516L16.1706 42.5646L44.9534 72.9775C45.5808 73.6366 46.0787 74.4206 46.4186 75.2845C46.7584 76.1484 46.9333 77.075 46.9333 78.0109C46.9333 78.9468 46.7584 79.8734 46.4186 80.7373C46.0787 81.6012 45.5808 82.3852 44.9534 83.0443C44.3311 83.7087 43.5908 84.2361 42.7751 84.5961C41.9594 84.956 41.0845 85.1413 40.2009 85.1413C39.3172 85.1413 38.4423 84.956 37.6266 84.5961C36.8109 84.2361 36.0706 83.7087 35.4484 83.0443L1.98 47.598C1.35261 46.9389 0.85463 46.1548 0.514801 45.291C0.174973 44.4271 1.14441e-05 43.5005 1.14441e-05 42.5646C1.14441e-05 41.6287 0.174973 40.7021 0.514801 39.8382C0.85463 38.9743 1.35261 38.1903 1.98 37.5312Z" fill="white"/>
</svg>
