<svg width="35" height="35" viewBox="0 0 35 35" fill="none" xmlns="http://www.w3.org/2000/svg">
<path d="M12.0209 10.7042L2.71672 12.0531L2.55193 12.0867C2.30246 12.1529 2.07504 12.2841 1.89289 12.467C1.71074 12.6499 1.58039 12.8778 1.51514 13.1275C1.44989 13.3772 1.45209 13.6398 1.52151 13.8884C1.59092 14.137 1.72507 14.3627 1.91026 14.5425L8.65068 21.1036L7.06109 30.3713L7.04213 30.5317C7.02686 30.7897 7.08044 31.0471 7.19737 31.2776C7.31431 31.5081 7.4904 31.7034 7.70762 31.8435C7.92484 31.9835 8.17539 32.0634 8.4336 32.0748C8.69181 32.0861 8.94841 32.0287 9.17713 31.9083L17.4984 27.5333L25.8007 31.9083L25.9465 31.9754C26.1872 32.0702 26.4488 32.0993 26.7045 32.0597C26.9601 32.02 27.2006 31.9131 27.4013 31.7498C27.602 31.5865 27.7557 31.3728 27.8465 31.1305C27.9373 30.8883 27.962 30.6262 27.9182 30.3713L26.3271 21.1036L33.0705 14.5411L33.1842 14.4171C33.3467 14.217 33.4532 13.9773 33.493 13.7226C33.5327 13.4679 33.5042 13.2072 33.4104 12.9671C33.3166 12.727 33.1608 12.5161 32.9589 12.3558C32.757 12.1955 32.5162 12.0915 32.2611 12.0546L22.9569 10.7042L18.7978 2.27501C18.6774 2.03079 18.4911 1.82514 18.2599 1.68133C18.0287 1.53752 17.7619 1.4613 17.4896 1.4613C17.2174 1.4613 16.9505 1.53752 16.7194 1.68133C16.4882 1.82514 16.3019 2.03079 16.1815 2.27501L12.0209 10.7042Z" fill="white"/>
</svg>
